# Blender v3.5.0 OBJ File: ''
# www.blender.org
mtllib TimesTwoMdl.mtl
o Cube
v 0.151832 1.000000 -1.000000
v 0.151832 -1.000000 -1.000000
v 0.151832 1.000000 1.000000
v 0.151832 -1.000000 1.000000
v -0.151832 1.000000 -1.000000
v -0.151832 -1.000000 -1.000000
v -0.151832 1.000000 1.000000
v -0.151832 -1.000000 1.000000
v 0.105955 0.865325 -0.865325
v 0.105955 -0.865325 -0.865325
v 0.105955 0.865325 0.865325
v 0.105955 -0.865325 0.865325
v 0.059851 0.865325 -0.865325
v 0.059851 -0.865325 -0.865325
v 0.059851 0.865325 0.865325
v 0.059851 -0.865325 0.865325
vt 0.250043 0.500000
vt 0.000087 0.500000
vt 0.000087 0.250043
vt 0.250043 0.250043
vt 0.500000 0.250043
vt 0.250043 0.000087
vt 0.500000 0.000087
vt 0.500000 0.999913
vt 0.250043 0.999913
vt 0.250043 0.749957
vt 0.500000 0.749957
vt 0.749957 0.500000
vt 0.500000 0.500000
vt 0.749957 0.250043
vt 0.250043 0.500000
vt 0.500000 0.500000
vt 0.250043 0.250043
vt 0.250043 0.250043
vt 0.250043 0.500000
vt 0.500000 0.250043
vt 0.500000 0.500000
vt 0.500000 0.250043
vn 0.0000 1.0000 0.0000
vn 0.0000 0.0000 1.0000
vn -1.0000 0.0000 0.0000
vn 0.0000 -1.0000 0.0000
vn 0.9466 0.0000 0.3225
vn 0.0000 0.0000 -1.0000
vn 0.9466 0.3225 0.0000
vn 0.9466 -0.3225 0.0000
vn 0.9466 0.0000 -0.3225
vn 1.0000 0.0000 0.0000
usemtl Material
s off
f 1/1/1 5/2/1 7/3/1 3/4/1
f 4/5/2 3/4/2 7/6/2 8/7/2
f 8/8/3 7/9/3 5/10/3 6/11/3
f 6/12/4 2/13/4 4/5/4 8/14/4
f 2/13/5 1/1/5 9/15/5 10/16/5
f 6/11/6 5/10/6 1/1/6 2/13/6
f 9/15/4 11/17/4 15/18/4 13/19/4
f 4/5/7 2/13/7 10/16/7 12/20/7
f 1/1/8 3/4/8 11/17/8 9/15/8
f 3/4/9 4/5/9 12/20/9 11/17/9
f 14/21/10 13/19/10 15/18/10 16/22/10
f 10/16/2 9/15/2 13/19/2 14/21/2
f 12/20/1 10/16/1 14/21/1 16/22/1
f 11/17/6 12/20/6 16/22/6 15/18/6
